<?xml version="1.0" encoding="utf-8" standalone="no"?>
<!DOCTYPE svg PUBLIC "-//W3C//DTD SVG 1.1//EN"
  "http://www.w3.org/Graphics/SVG/1.1/DTD/svg11.dtd">
<svg xmlns:xlink="http://www.w3.org/1999/xlink" width="697.972935pt" height="408.84025pt" viewBox="0 0 697.972935 408.84025" xmlns="http://www.w3.org/2000/svg" version="1.1">
 <metadata>
  <rdf:RDF xmlns:dc="http://purl.org/dc/elements/1.1/" xmlns:cc="http://creativecommons.org/ns#" xmlns:rdf="http://www.w3.org/1999/02/22-rdf-syntax-ns#">
   <cc:Work>
    <dc:type rdf:resource="http://purl.org/dc/dcmitype/StillImage"/>
    <dc:date>2026-05-19T20:09:26.637968</dc:date>
    <dc:format>image/svg+xml</dc:format>
    <dc:creator>
     <cc:Agent>
      <dc:title>Matplotlib v3.10.9, https://matplotlib.org/</dc:title>
     </cc:Agent>
    </dc:creator>
   </cc:Work>
  </rdf:RDF>
 </metadata>
 <defs>
  <style type="text/css">*{stroke-linejoin: round; stroke-linecap: butt}</style>
 </defs>
 <g id="figure_1">
  <g id="patch_1">
   <path d="M -0 408.84025 
L 697.972935 408.84025 
L 697.972935 0 
L -0 0 
z
" style="fill: #f8fafc"/>
  </g>
  <g id="axes_1">
   <g id="patch_2">
    <path d="M 79.2 368.784 
L 640.8 368.784 
L 640.8 83.088 
L 79.2 83.088 
z
" style="fill: #ffffff"/>
   </g>
   <g id="FillBetweenPolyCollection_1">
    <path d="M 79.2 324.57005 
L 79.2 355.797818 
L 80.438264 354.538408 
L 81.676528 351.337564 
L 82.914792 347.508768 
L 84.153056 344.249603 
L 85.391319 342.091233 
L 86.629583 340.940172 
L 87.867847 340.437359 
L 89.106111 340.255713 
L 90.344375 340.201117 
L 91.582639 340.18741 
L 92.820903 340.184528 
L 94.059167 340.18402 
L 95.297431 340.183944 
L 96.535695 340.183935 
L 97.773958 340.183934 
L 99.012222 340.183934 
L 100.250486 340.183934 
L 101.48875 340.183934 
L 102.727014 340.183934 
L 103.965278 340.183934 
L 105.203542 340.183934 
L 106.441806 340.183934 
L 107.68007 340.183934 
L 108.918333 340.183934 
L 110.156597 340.183934 
L 111.394861 340.183934 
L 112.633125 340.183934 
L 113.871389 340.183934 
L 115.109653 340.183934 
L 116.347917 340.183934 
L 117.586181 340.183934 
L 118.824445 340.183934 
L 120.062709 340.183938 
L 121.300972 340.183956 
L 122.539236 340.184053 
L 123.7775 340.184474 
L 125.015764 340.186044 
L 126.254028 340.191078 
L 127.492292 340.204961 
L 128.730556 340.237992 
L 129.96882 340.306003 
L 131.207084 340.427594 
L 132.445347 340.616924 
L 133.683611 340.874245 
L 134.921875 341.179469 
L 136.160139 341.493804 
L 137.398403 341.770125 
L 138.636667 341.967524 
L 139.874931 342.063322 
L 141.113195 342.0577 
L 142.351459 341.969937 
L 143.589723 341.828866 
L 144.827986 341.662365 
L 146.06625 341.490538 
L 147.304514 341.324489 
L 148.542778 341.169074 
L 149.781042 341.026435 
L 151.019306 340.898087 
L 152.25757 340.785278 
L 153.495834 340.688506 
L 154.734098 340.607112 
L 155.972361 340.539297 
L 157.210625 340.482523 
L 158.448889 340.434138 
L 159.687153 340.392008 
L 160.925417 340.354897 
L 162.163681 340.322436 
L 163.401945 340.294801 
L 164.640209 340.272314 
L 165.878473 340.255057 
L 167.116737 340.242544 
L 168.355 340.233631 
L 169.593264 340.226829 
L 170.831528 340.220888 
L 172.069792 340.215203 
L 173.308056 340.209774 
L 174.54632 340.204854 
L 175.784584 340.200637 
L 177.022848 340.19717 
L 178.261112 340.194409 
L 179.499375 340.192264 
L 180.737639 340.1906 
L 181.975903 340.189254 
L 183.214167 340.188105 
L 184.452431 340.18712 
L 185.690695 340.186331 
L 186.928959 340.18577 
L 188.167223 340.185418 
L 189.405487 340.185205 
L 190.643751 340.185044 
L 191.882014 340.184866 
L 193.120278 340.184654 
L 194.358542 340.184439 
L 195.596806 340.184271 
L 196.83507 340.184184 
L 198.073334 340.184183 
L 199.311598 340.184238 
L 200.549862 340.184302 
L 201.788126 340.184328 
L 201.788126 340.183539 
L 201.788126 340.183539 
L 200.549862 340.183565 
L 199.311598 340.183629 
L 198.073334 340.183685 
L 196.83507 340.183684 
L 195.596806 340.183597 
L 194.358542 340.183428 
L 193.120278 340.183213 
L 191.882014 340.183002 
L 190.643751 340.182824 
L 189.405487 340.182663 
L 188.167223 340.18245 
L 186.928959 340.182098 
L 185.690695 340.181537 
L 184.452431 340.180748 
L 183.214167 340.179763 
L 181.975903 340.178614 
L 180.737639 340.177268 
L 179.499375 340.175603 
L 178.261112 340.173459 
L 177.022848 340.170698 
L 175.784584 340.16723 
L 174.54632 340.163013 
L 173.308056 340.158094 
L 172.069792 340.152665 
L 170.831528 340.14698 
L 169.593264 340.141039 
L 168.355 340.134237 
L 167.116737 340.125323 
L 165.878473 340.112811 
L 164.640209 340.095554 
L 163.401945 340.073067 
L 162.163681 340.045432 
L 160.925417 340.012971 
L 159.687153 339.97586 
L 158.448889 339.93373 
L 157.210625 339.885345 
L 155.972361 339.828571 
L 154.734098 339.760756 
L 153.495834 339.679362 
L 152.25757 339.58259 
L 151.019306 339.46978 
L 149.781042 339.341433 
L 148.542778 339.198794 
L 147.304514 339.043378 
L 146.06625 338.877329 
L 144.827986 338.705503 
L 143.589723 338.539002 
L 142.351459 338.397931 
L 141.113195 338.310168 
L 139.874931 338.304545 
L 138.636667 338.400344 
L 137.398403 338.597743 
L 136.160139 338.874064 
L 134.921875 339.188398 
L 133.683611 339.493622 
L 132.445347 339.750943 
L 131.207084 339.940273 
L 129.96882 340.061865 
L 128.730556 340.129876 
L 127.492292 340.162906 
L 126.254028 340.17679 
L 125.015764 340.181824 
L 123.7775 340.183394 
L 122.539236 340.183815 
L 121.300972 340.183911 
L 120.062709 340.18393 
L 118.824445 340.183933 
L 117.586181 340.183934 
L 116.347917 340.183934 
L 115.109653 340.183934 
L 113.871389 340.183934 
L 112.633125 340.183934 
L 111.394861 340.183934 
L 110.156597 340.183934 
L 108.918333 340.183934 
L 107.68007 340.183934 
L 106.441806 340.183934 
L 105.203542 340.183934 
L 103.965278 340.183934 
L 102.727014 340.183934 
L 101.48875 340.183934 
L 100.250486 340.183934 
L 99.012222 340.183934 
L 97.773958 340.183934 
L 96.535695 340.183933 
L 95.297431 340.183923 
L 94.059167 340.183848 
L 92.820903 340.183339 
L 91.582639 340.180457 
L 90.344375 340.166751 
L 89.106111 340.112155 
L 87.867847 339.930508 
L 86.629583 339.427696 
L 85.391319 338.276634 
L 84.153056 336.118265 
L 82.914792 332.8591 
L 81.676528 329.030304 
L 80.438264 325.82946 
L 79.2 324.57005 
z
" clip-path="url(#p06ffdea685)" style="fill: #eab308; fill-opacity: 0.18"/>
   </g>
   <g id="FillBetweenPolyCollection_2">
    <path d="M 79.2 286.487405 
L 79.2 317.715174 
L 80.569319 316.854133 
L 81.938638 314.545578 
L 83.307957 311.472464 
L 84.677276 308.40139 
L 86.046595 305.882497 
L 87.415914 304.127307 
L 88.785233 303.070427 
L 90.154552 302.515153 
L 91.523871 302.259072 
L 92.89319 302.154991 
L 94.262509 302.117607 
L 95.631828 302.105716 
L 97.001147 302.102361 
L 98.370466 302.101521 
L 99.739784 302.101334 
L 101.109103 302.101297 
L 102.478422 302.10129 
L 103.847741 302.101289 
L 105.21706 302.101289 
L 106.586379 302.101289 
L 107.955698 302.101289 
L 109.325017 302.101289 
L 110.694336 302.101289 
L 112.063655 302.101289 
L 113.432974 302.10129 
L 114.802293 302.101292 
L 116.171612 302.101302 
L 117.540931 302.101347 
L 118.91025 302.101522 
L 120.279569 302.102144 
L 121.648888 302.104139 
L 123.018207 302.109923 
L 124.387526 302.125095 
L 125.756845 302.161135 
L 127.126164 302.238712 
L 128.495483 302.390132 
L 129.864802 302.65828 
L 131.234121 303.089245 
L 132.60344 303.717872 
L 133.972759 304.549639 
L 135.342078 305.5465 
L 136.711397 306.625244 
L 138.080716 307.672416 
L 139.450034 308.571783 
L 140.819353 309.233486 
L 142.188672 309.613139 
L 143.557991 309.714704 
L 144.92731 309.579076 
L 146.296629 309.265969 
L 147.665948 308.837086 
L 149.035267 308.345119 
L 150.404586 307.829089 
L 151.773905 307.314274 
L 153.143224 306.814783 
L 154.512543 306.337392 
L 155.881862 305.885461 
L 157.251181 305.461808 
L 158.6205 305.069713 
L 159.989819 304.712209 
L 161.359138 304.390682 
L 162.728457 304.10401 
L 164.097776 303.848851 
L 165.467095 303.62081 
L 166.836414 303.415773 
L 168.205733 303.230785 
L 169.575052 303.064225 
L 170.944371 302.915444 
L 172.31369 302.784177 
L 173.683009 302.670036 
L 175.052328 302.572281 
L 176.421647 302.489815 
L 177.790966 302.421294 
L 179.160284 302.365196 
L 180.529603 302.319851 
L 181.898922 302.283468 
L 183.268241 302.254253 
L 184.63756 302.230591 
L 186.006879 302.211195 
L 187.376198 302.195131 
L 188.745517 302.181732 
L 190.114836 302.170466 
L 191.484155 302.160857 
L 192.853474 302.15249 
L 194.222793 302.145043 
L 195.592112 302.138309 
L 196.961431 302.132195 
L 198.33075 302.126693 
L 199.700069 302.121853 
L 201.069388 302.117741 
L 202.438707 302.114389 
L 203.808026 302.111753 
L 205.177345 302.109716 
L 206.546664 302.108124 
L 207.915983 302.106841 
L 209.285302 302.105785 
L 210.654621 302.104918 
L 212.02394 302.104217 
L 213.393259 302.103646 
L 214.762578 302.103161 
L 214.762578 302.099417 
L 214.762578 302.099417 
L 213.393259 302.098933 
L 212.02394 302.098362 
L 210.654621 302.09766 
L 209.285302 302.096794 
L 207.915983 302.095738 
L 206.546664 302.094455 
L 205.177345 302.092862 
L 203.808026 302.090826 
L 202.438707 302.08819 
L 201.069388 302.084837 
L 199.700069 302.080726 
L 198.33075 302.075886 
L 196.961431 302.070384 
L 195.592112 302.06427 
L 194.222793 302.057536 
L 192.853474 302.050089 
L 191.484155 302.041722 
L 190.114836 302.032113 
L 188.745517 302.020846 
L 187.376198 302.007447 
L 186.006879 301.991384 
L 184.63756 301.971987 
L 183.268241 301.948325 
L 181.898922 301.919111 
L 180.529603 301.882728 
L 179.160284 301.837382 
L 177.790966 301.781285 
L 176.421647 301.712763 
L 175.052328 301.630298 
L 173.683009 301.532543 
L 172.31369 301.418402 
L 170.944371 301.287134 
L 169.575052 301.138354 
L 168.205733 300.971794 
L 166.836414 300.786805 
L 165.467095 300.581769 
L 164.097776 300.353727 
L 162.728457 300.098568 
L 161.359138 299.811897 
L 159.989819 299.49037 
L 158.6205 299.132866 
L 157.251181 298.74077 
L 155.881862 298.317117 
L 154.512543 297.865187 
L 153.143224 297.387796 
L 151.773905 296.888305 
L 150.404586 296.373489 
L 149.035267 295.85746 
L 147.665948 295.365493 
L 146.296629 294.936609 
L 144.92731 294.623503 
L 143.557991 294.487875 
L 142.188672 294.589439 
L 140.819353 294.969093 
L 139.450034 295.630795 
L 138.080716 296.530162 
L 136.711397 297.577335 
L 135.342078 298.656078 
L 133.972759 299.65294 
L 132.60344 300.484706 
L 131.234121 301.113333 
L 129.864802 301.544298 
L 128.495483 301.812446 
L 127.126164 301.963867 
L 125.756845 302.041444 
L 124.387526 302.077483 
L 123.018207 302.092655 
L 121.648888 302.098439 
L 120.279569 302.100434 
L 118.91025 302.101057 
L 117.540931 302.101232 
L 116.171612 302.101276 
L 114.802293 302.101287 
L 113.432974 302.101289 
L 112.063655 302.101289 
L 110.694336 302.101289 
L 109.325017 302.101289 
L 107.955698 302.101289 
L 106.586379 302.101289 
L 105.21706 302.101289 
L 103.847741 302.101289 
L 102.478422 302.101288 
L 101.109103 302.101282 
L 99.739784 302.101245 
L 98.370466 302.101058 
L 97.001147 302.100217 
L 95.631828 302.096863 
L 94.262509 302.084972 
L 92.89319 302.047587 
L 91.523871 301.943507 
L 90.154552 301.687426 
L 88.785233 301.132152 
L 87.415914 300.075272 
L 86.046595 298.320081 
L 84.677276 295.801188 
L 83.307957 292.730115 
L 81.938638 289.657 
L 80.569319 287.348446 
L 79.2 286.487405 
z
" clip-path="url(#p06ffdea685)" style="fill: #7c3aed; fill-opacity: 0.18"/>
   </g>
   <g id="FillBetweenPolyCollection_3">
    <path d="M 79.2 248.40476 
L 79.2 279.632529 
L 80.864285 278.393971 
L 82.528569 275.237226 
L 84.192854 271.439802 
L 85.857138 268.179847 
L 87.521423 265.996432 
L 89.185708 264.815453 
L 90.849992 264.290753 
L 92.514277 264.097411 
L 94.178561 264.037971 
L 95.842846 264.022664 
L 97.507131 264.019353 
L 99.171415 264.018751 
L 100.8357 264.018658 
L 102.499984 264.018646 
L 104.164269 264.018645 
L 105.828553 264.018645 
L 107.492838 264.018645 
L 109.157123 264.018645 
L 110.821407 264.018645 
L 112.485692 264.018645 
L 114.149976 264.018646 
L 115.814261 264.018654 
L 117.478546 264.018706 
L 119.14283 264.018975 
L 120.807115 264.020186 
L 122.471399 264.024908 
L 124.135684 264.040848 
L 125.799969 264.087546 
L 127.464253 264.206472 
L 129.128538 264.470171 
L 130.792822 264.979936 
L 132.457107 265.839786 
L 134.121392 267.105399 
L 135.785676 268.729011 
L 137.449961 270.538085 
L 139.114245 272.274693 
L 140.77853 273.683607 
L 142.442815 274.600166 
L 144.107099 274.988701 
L 145.771384 274.919594 
L 147.435668 274.513517 
L 149.099953 273.891713 
L 150.764237 273.151768 
L 152.428522 272.364358 
L 154.092807 271.577692 
L 155.757091 270.821515 
L 157.421376 270.109881 
L 159.08566 269.444849 
L 160.749945 268.822117 
L 162.41423 268.237282 
L 164.078514 267.689932 
L 165.742799 267.183683 
L 167.407083 266.723118 
L 169.071368 266.310726 
L 170.735653 265.946194 
L 172.399937 265.627725 
L 174.064222 265.353403 
L 175.728506 265.121295 
L 177.392791 264.928619 
L 179.057076 264.771056 
L 180.72136 264.642799 
L 182.385645 264.537349 
L 184.049929 264.448697 
L 185.714214 264.372419 
L 187.378499 264.306196 
L 189.042783 264.249496 
L 190.707068 264.202578 
L 192.371352 264.165366 
L 194.035637 264.136831 
L 195.699921 264.115106 
L 197.364206 264.098128 
L 199.028491 264.084305 
L 200.692775 264.072786 
L 202.35706 264.063233 
L 204.021344 264.055402 
L 205.685629 264.048924 
L 207.349914 264.043394 
L 209.014198 264.038581 
L 210.678483 264.034473 
L 212.342767 264.031125 
L 214.007052 264.028492 
L 215.671337 264.026409 
L 217.335621 264.024712 
L 218.999906 264.023345 
L 220.66419 264.022328 
L 222.328475 264.02165 
L 223.99276 264.021213 
L 225.657044 264.020885 
L 227.321329 264.020581 
L 228.985613 264.020278 
L 230.649898 264.019975 
L 232.314182 264.019678 
L 233.978467 264.019405 
L 235.642752 264.019202 
L 237.307036 264.019117 
L 238.971321 264.019163 
L 240.635605 264.019298 
L 242.29989 264.019438 
L 243.964175 264.019493 
L 243.964175 264.017796 
L 243.964175 264.017796 
L 242.29989 264.017851 
L 240.635605 264.017991 
L 238.971321 264.018126 
L 237.307036 264.018172 
L 235.642752 264.018087 
L 233.978467 264.017884 
L 232.314182 264.017612 
L 230.649898 264.017314 
L 228.985613 264.017011 
L 227.321329 264.016708 
L 225.657044 264.016404 
L 223.99276 264.016076 
L 222.328475 264.015639 
L 220.66419 264.014961 
L 218.999906 264.013944 
L 217.335621 264.012577 
L 215.671337 264.01088 
L 214.007052 264.008797 
L 212.342767 264.006164 
L 210.678483 264.002816 
L 209.014198 263.998708 
L 207.349914 263.993896 
L 205.685629 263.988366 
L 204.021344 263.981887 
L 202.35706 263.974056 
L 200.692775 263.964503 
L 199.028491 263.952984 
L 197.364206 263.939162 
L 195.699921 263.922183 
L 194.035637 263.900458 
L 192.371352 263.871923 
L 190.707068 263.834712 
L 189.042783 263.787793 
L 187.378499 263.731093 
L 185.714214 263.66487 
L 184.049929 263.588592 
L 182.385645 263.499941 
L 180.72136 263.39449 
L 179.057076 263.266234 
L 177.392791 263.108671 
L 175.728506 262.915995 
L 174.064222 262.683886 
L 172.399937 262.409565 
L 170.735653 262.091096 
L 169.071368 261.726563 
L 167.407083 261.314171 
L 165.742799 260.853606 
L 164.078514 260.347357 
L 162.41423 259.800007 
L 160.749945 259.215172 
L 159.08566 258.59244 
L 157.421376 257.927408 
L 155.757091 257.215775 
L 154.092807 256.459597 
L 152.428522 255.672932 
L 150.764237 254.885521 
L 149.099953 254.145577 
L 147.435668 253.523772 
L 145.771384 253.117695 
L 144.107099 253.048589 
L 142.442815 253.437123 
L 140.77853 254.353682 
L 139.114245 255.762596 
L 137.449961 257.499205 
L 135.785676 259.308278 
L 134.121392 260.93189 
L 132.457107 262.197503 
L 130.792822 263.057354 
L 129.128538 263.567118 
L 127.464253 263.830817 
L 125.799969 263.949743 
L 124.135684 263.996442 
L 122.471399 264.012382 
L 120.807115 264.017103 
L 119.14283 264.018315 
L 117.478546 264.018583 
L 115.814261 264.018635 
L 114.149976 264.018643 
L 112.485692 264.018644 
L 110.821407 264.018645 
L 109.157123 264.018645 
L 107.492838 264.018645 
L 105.828553 264.018645 
L 104.164269 264.018644 
L 102.499984 264.018643 
L 100.8357 264.018631 
L 99.171415 264.018539 
L 97.507131 264.017936 
L 95.842846 264.014625 
L 94.178561 263.999318 
L 92.514277 263.939878 
L 90.849992 263.746537 
L 89.185708 263.221837 
L 87.521423 262.040858 
L 85.857138 259.857442 
L 84.192854 256.597487 
L 82.528569 252.800064 
L 80.864285 249.643319 
L 79.2 248.40476 
z
" clip-path="url(#p06ffdea685)" style="fill: #be185d; fill-opacity: 0.18"/>
   </g>
   <g id="FillBetweenPolyCollection_4">
    <path d="M 79.2 225.933353 
L 79.2 225.938647 
L 82.388605 225.937673 
L 85.57721 225.936422 
L 88.765815 225.936043 
L 91.954421 225.936002 
L 95.143026 225.936 
L 98.331631 225.936 
L 101.520236 225.936 
L 104.708841 225.936 
L 107.897446 225.936 
L 111.086051 225.936 
L 114.274657 225.936 
L 117.463262 225.936 
L 120.651867 225.936 
L 123.840472 225.936 
L 127.029077 225.936 
L 130.217682 225.936015 
L 133.406287 225.936278 
L 136.594893 225.938448 
L 139.783498 225.947409 
L 142.972103 225.969656 
L 146.160708 226.011373 
L 149.349313 226.083293 
L 152.537918 226.202478 
L 155.726524 226.388517 
L 158.915129 226.662469 
L 162.103734 227.058459 
L 165.292339 227.601662 
L 168.480944 228.28852 
L 171.669549 229.12796 
L 174.858154 230.086602 
L 178.04676 231.157155 
L 181.235365 232.387639 
L 184.42397 233.688516 
L 187.612575 234.978792 
L 190.80118 236.361473 
L 193.989785 237.692254 
L 197.17839 238.714732 
L 200.366996 239.616541 
L 203.555601 240.543228 
L 206.744206 241.219796 
L 209.932811 241.512833 
L 213.121416 241.549884 
L 216.310021 241.424452 
L 219.498626 241.087609 
L 222.687232 240.632522 
L 225.875837 240.09253 
L 229.064442 239.519847 
L 232.253047 238.923025 
L 235.441652 238.157764 
L 238.630257 237.194666 
L 241.818862 236.17274 
L 245.007468 235.218595 
L 248.196073 234.335344 
L 251.384678 233.460811 
L 254.573283 232.609811 
L 257.761888 231.841508 
L 260.950493 231.186651 
L 264.139098 230.613831 
L 267.327704 230.050891 
L 270.516309 229.497074 
L 273.704914 228.981038 
L 276.893519 228.52405 
L 280.082124 228.104327 
L 283.270729 227.755487 
L 286.459334 227.521361 
L 289.64794 227.294472 
L 292.836545 227.050835 
L 296.02515 226.844834 
L 299.213755 226.689977 
L 302.40236 226.565443 
L 305.590965 226.460621 
L 308.779571 226.368958 
L 311.968176 226.290899 
L 315.156781 226.225067 
L 318.345386 226.174276 
L 321.533991 226.124796 
L 324.722596 226.07513 
L 327.911201 226.043074 
L 331.099807 226.03004 
L 334.288412 226.023908 
L 337.477017 226.011004 
L 340.665622 225.993587 
L 343.854227 225.978653 
L 347.042832 225.964817 
L 350.231437 225.955456 
L 353.420043 225.953337 
L 356.608648 225.951274 
L 359.797253 225.946234 
L 362.985858 225.942919 
L 366.174463 225.941496 
L 369.363068 225.938918 
L 372.551673 225.937966 
L 375.740279 225.938678 
L 378.928884 225.938151 
L 382.117489 225.937754 
L 385.306094 225.938632 
L 388.494699 225.938572 
L 391.683304 225.938402 
L 394.871909 225.938746 
L 394.871909 225.933254 
L 394.871909 225.933254 
L 391.683304 225.933598 
L 388.494699 225.933428 
L 385.306094 225.933368 
L 382.117489 225.934246 
L 378.928884 225.933849 
L 375.740279 225.933322 
L 372.551673 225.934034 
L 369.363068 225.933082 
L 366.174463 225.930504 
L 362.985858 225.929081 
L 359.797253 225.925766 
L 356.608648 225.920726 
L 353.420043 225.918663 
L 350.231437 225.916544 
L 347.042832 225.907183 
L 343.854227 225.893347 
L 340.665622 225.878413 
L 337.477017 225.860996 
L 334.288412 225.848092 
L 331.099807 225.84196 
L 327.911201 225.828926 
L 324.722596 225.79687 
L 321.533991 225.747204 
L 318.345386 225.697724 
L 315.156781 225.646933 
L 311.968176 225.581101 
L 308.779571 225.503042 
L 305.590965 225.411379 
L 302.40236 225.306557 
L 299.213755 225.182023 
L 296.02515 225.027166 
L 292.836545 224.821165 
L 289.64794 224.577528 
L 286.459334 224.350639 
L 283.270729 224.116513 
L 280.082124 223.767673 
L 276.893519 223.34795 
L 273.704914 222.890962 
L 270.516309 222.374926 
L 267.327704 221.821109 
L 264.139098 221.258169 
L 260.950493 220.685349 
L 257.761888 220.030492 
L 254.573283 219.262189 
L 251.384678 218.411189 
L 248.196073 217.536656 
L 245.007468 216.653405 
L 241.818862 215.69926 
L 238.630257 214.677334 
L 235.441652 213.714236 
L 232.253047 212.948975 
L 229.064442 212.352153 
L 225.875837 211.77947 
L 222.687232 211.239478 
L 219.498626 210.784391 
L 216.310021 210.447548 
L 213.121416 210.322116 
L 209.932811 210.359167 
L 206.744206 210.652204 
L 203.555601 211.328772 
L 200.366996 212.255459 
L 197.17839 213.157268 
L 193.989785 214.179746 
L 190.80118 215.510527 
L 187.612575 216.893208 
L 184.42397 218.183484 
L 181.235365 219.484361 
L 178.04676 220.714845 
L 174.858154 221.785398 
L 171.669549 222.74404 
L 168.480944 223.58348 
L 165.292339 224.270338 
L 162.103734 224.813541 
L 158.915129 225.209531 
L 155.726524 225.483483 
L 152.537918 225.669522 
L 149.349313 225.788707 
L 146.160708 225.860627 
L 142.972103 225.902344 
L 139.783498 225.924591 
L 136.594893 225.933552 
L 133.406287 225.935722 
L 130.217682 225.935985 
L 127.029077 225.936 
L 123.840472 225.936 
L 120.651867 225.936 
L 117.463262 225.936 
L 114.274657 225.936 
L 111.086051 225.936 
L 107.897446 225.936 
L 104.708841 225.936 
L 101.520236 225.936 
L 98.331631 225.936 
L 95.143026 225.936 
L 91.954421 225.935998 
L 88.765815 225.935957 
L 85.57721 225.935578 
L 82.388605 225.934327 
L 79.2 225.933353 
z
" clip-path="url(#p06ffdea685)" style="fill: #16a34a; fill-opacity: 0.18"/>
   </g>
   <g id="FillBetweenPolyCollection_5">
    <path d="M 151.781778 187.849537 
L 151.781778 187.857174 
L 155.511109 187.859833 
L 159.24044 187.865607 
L 162.969771 187.879599 
L 166.699102 187.915028 
L 170.428433 187.984681 
L 174.157764 188.097057 
L 177.887096 188.25989 
L 181.616427 188.479642 
L 185.345758 188.77818 
L 189.075089 189.177195 
L 192.80442 189.697882 
L 196.533751 190.364132 
L 200.263082 191.178201 
L 203.992413 192.108314 
L 207.721744 193.112657 
L 211.451076 194.182739 
L 215.180407 195.275084 
L 218.909738 196.356291 
L 222.639069 197.470226 
L 226.3684 198.668377 
L 230.097731 199.923946 
L 233.827062 201.110708 
L 237.556393 202.046927 
L 241.285725 202.753647 
L 245.015056 203.265597 
L 248.744387 203.46724 
L 252.473718 203.376021 
L 256.203049 203.23636 
L 259.93238 203.168245 
L 263.661711 202.905738 
L 267.391042 202.266538 
L 271.120373 201.541488 
L 274.849705 200.9023 
L 278.579036 200.172521 
L 282.308367 199.224974 
L 286.037698 198.221724 
L 289.767029 197.39717 
L 293.49636 196.639121 
L 297.225691 195.78095 
L 300.955022 194.903259 
L 304.684353 194.0994 
L 308.413685 193.37461 
L 312.143016 192.771292 
L 315.872347 192.276026 
L 319.601678 191.81354 
L 323.331009 191.358926 
L 327.06034 190.875247 
L 330.789671 190.391946 
L 334.519002 189.968837 
L 338.248333 189.614033 
L 341.977665 189.340809 
L 345.706996 189.147901 
L 349.436327 188.999906 
L 353.165658 188.834927 
L 356.894989 188.660004 
L 360.62432 188.514105 
L 364.353651 188.3876 
L 368.082982 188.272045 
L 371.812313 188.186481 
L 375.541645 188.135419 
L 379.270976 188.102503 
L 383.000307 188.067657 
L 386.729638 188.026583 
L 390.458969 187.980437 
L 394.1883 187.939574 
L 397.917631 187.921786 
L 401.646962 187.923551 
L 405.376294 187.918591 
L 409.105625 187.903283 
L 412.834956 187.891216 
L 416.564287 187.881645 
L 420.293618 187.873899 
L 424.022949 187.87263 
L 427.75228 187.873609 
L 431.481611 187.872775 
L 435.210942 187.867651 
L 438.940274 187.859939 
L 442.669605 187.856163 
L 446.398936 187.857177 
L 450.128267 187.858302 
L 453.857598 187.856636 
L 457.586929 187.854412 
L 461.31626 187.853516 
L 465.045591 187.853367 
L 468.774922 187.853356 
L 472.504254 187.853355 
L 476.233585 187.853355 
L 479.962916 187.853355 
L 483.692247 187.853355 
L 487.421578 187.853355 
L 491.150909 187.853355 
L 494.88024 187.853355 
L 498.609571 187.853355 
L 502.338902 187.853355 
L 506.068234 187.853359 
L 509.797565 187.853421 
L 513.526896 187.853866 
L 517.256227 187.855112 
L 520.985558 187.856006 
L 520.985558 187.850705 
L 520.985558 187.850705 
L 517.256227 187.851599 
L 513.526896 187.852844 
L 509.797565 187.85329 
L 506.068234 187.853352 
L 502.338902 187.853355 
L 498.609571 187.853355 
L 494.88024 187.853355 
L 491.150909 187.853355 
L 487.421578 187.853355 
L 483.692247 187.853355 
L 479.962916 187.853355 
L 476.233585 187.853355 
L 472.504254 187.853355 
L 468.774922 187.853355 
L 465.045591 187.853344 
L 461.31626 187.853195 
L 457.586929 187.852299 
L 453.857598 187.850075 
L 450.128267 187.848409 
L 446.398936 187.849534 
L 442.669605 187.850548 
L 438.940274 187.846772 
L 435.210942 187.83906 
L 431.481611 187.833936 
L 427.75228 187.833102 
L 424.022949 187.834081 
L 420.293618 187.832811 
L 416.564287 187.825065 
L 412.834956 187.815494 
L 409.105625 187.803427 
L 405.376294 187.788119 
L 401.646962 187.78316 
L 397.917631 187.784925 
L 394.1883 187.767137 
L 390.458969 187.726274 
L 386.729638 187.680128 
L 383.000307 187.639054 
L 379.270976 187.604208 
L 375.541645 187.571291 
L 371.812313 187.52023 
L 368.082982 187.434665 
L 364.353651 187.319111 
L 360.62432 187.192606 
L 356.894989 187.046707 
L 353.165658 186.871784 
L 349.436327 186.706805 
L 345.706996 186.55881 
L 341.977665 186.365902 
L 338.248333 186.092678 
L 334.519002 185.737874 
L 330.789671 185.314764 
L 327.06034 184.831464 
L 323.331009 184.347785 
L 319.601678 183.89317 
L 315.872347 183.430685 
L 312.143016 182.935418 
L 308.413685 182.332101 
L 304.684353 181.60731 
L 300.955022 180.803452 
L 297.225691 179.925761 
L 293.49636 179.067589 
L 289.767029 178.309541 
L 286.037698 177.484987 
L 282.308367 176.481737 
L 278.579036 175.53419 
L 274.849705 174.804411 
L 271.120373 174.165222 
L 267.391042 173.440173 
L 263.661711 172.800973 
L 259.93238 172.538465 
L 256.203049 172.470351 
L 252.473718 172.33069 
L 248.744387 172.239471 
L 245.015056 172.441114 
L 241.285725 172.953064 
L 237.556393 173.659784 
L 233.827062 174.596002 
L 230.097731 175.782764 
L 226.3684 177.038334 
L 222.639069 178.236485 
L 218.909738 179.35042 
L 215.180407 180.431627 
L 211.451076 181.523972 
L 207.721744 182.594054 
L 203.992413 183.598397 
L 200.263082 184.52851 
L 196.533751 185.342579 
L 192.80442 186.008829 
L 189.075089 186.529516 
L 185.345758 186.928531 
L 181.616427 187.227068 
L 177.887096 187.446821 
L 174.157764 187.609653 
L 170.428433 187.72203 
L 166.699102 187.791683 
L 162.969771 187.827112 
L 159.24044 187.841103 
L 155.511109 187.846878 
L 151.781778 187.849537 
z
" clip-path="url(#p06ffdea685)" style="fill: #e11d48; fill-opacity: 0.18"/>
   </g>
   <g id="FillBetweenPolyCollection_6">
    <path d="M 207.743036 149.746357 
L 207.743036 149.795065 
L 211.863234 149.809943 
L 215.983432 149.828414 
L 220.10363 149.856012 
L 224.223828 149.897363 
L 228.344026 149.953901 
L 232.464224 150.027107 
L 236.584422 150.127201 
L 240.70462 150.278191 
L 244.824818 150.506223 
L 248.945016 150.811721 
L 253.065214 151.164666 
L 257.185412 151.540852 
L 261.30561 151.951693 
L 265.425808 152.431683 
L 269.546006 152.996599 
L 273.666205 153.628024 
L 277.786403 154.314247 
L 281.906601 155.076977 
L 286.026799 155.943164 
L 290.146997 156.908823 
L 294.267195 157.924144 
L 298.387393 158.920113 
L 302.507591 159.845995 
L 306.627789 160.681522 
L 310.747987 161.43903 
L 314.868185 162.1381 
L 318.988383 162.800539 
L 323.108581 163.474022 
L 327.228779 164.176197 
L 331.348977 164.800956 
L 335.469175 165.210693 
L 339.589373 165.384595 
L 343.709571 165.373 
L 347.829769 165.252198 
L 351.949967 165.135785 
L 356.070165 165.075254 
L 360.190363 164.981544 
L 364.310561 164.732585 
L 368.430759 164.312068 
L 372.550957 163.781646 
L 376.671155 163.166549 
L 380.791353 162.481584 
L 384.911551 161.810013 
L 389.031749 161.210102 
L 393.151947 160.625537 
L 397.272145 159.978275 
L 401.392343 159.237409 
L 405.512541 158.428357 
L 409.632739 157.650342 
L 413.752937 157.00098 
L 417.873136 156.47495 
L 421.993334 155.976529 
L 426.113532 155.445801 
L 430.23373 154.914305 
L 434.353928 154.418608 
L 438.474126 153.947299 
L 442.594324 153.481334 
L 446.714522 153.041508 
L 450.83472 152.672702 
L 454.954918 152.387435 
L 459.075116 152.13732 
L 463.195314 151.851043 
L 467.315512 151.525307 
L 471.43571 151.233814 
L 475.555908 151.023784 
L 479.676106 150.875299 
L 483.796304 150.753771 
L 487.916502 150.639545 
L 492.0367 150.524432 
L 496.156898 150.41519 
L 500.277096 150.327023 
L 504.397294 150.259238 
L 508.517492 150.199071 
L 512.63769 150.144611 
L 516.757888 150.092807 
L 520.878086 150.033457 
L 524.998284 149.974867 
L 529.118482 149.935213 
L 533.23868 149.910677 
L 537.358878 149.885979 
L 541.479076 149.86109 
L 545.599274 149.844948 
L 549.719472 149.837209 
L 553.83967 149.830226 
L 557.959868 149.819908 
L 562.080067 149.808386 
L 566.200265 149.798992 
L 570.320463 149.791589 
L 574.440661 149.785691 
L 578.560859 149.783625 
L 582.681057 149.78554 
L 586.801255 149.786744 
L 590.921453 149.783608 
L 595.041651 149.777972 
L 599.161849 149.773561 
L 603.282047 149.771718 
L 607.402245 149.771821 
L 611.522443 149.772827 
L 615.642641 149.773419 
L 615.642641 149.768002 
L 615.642641 149.768002 
L 611.522443 149.768594 
L 607.402245 149.769601 
L 603.282047 149.769704 
L 599.161849 149.76786 
L 595.041651 149.76345 
L 590.921453 149.757813 
L 586.801255 149.754678 
L 582.681057 149.755882 
L 578.560859 149.757797 
L 574.440661 149.755731 
L 570.320463 149.749833 
L 566.200265 149.74243 
L 562.080067 149.733036 
L 557.959868 149.721514 
L 553.83967 149.711196 
L 549.719472 149.704213 
L 545.599274 149.696474 
L 541.479076 149.680331 
L 537.358878 149.655443 
L 533.23868 149.630745 
L 529.118482 149.606208 
L 524.998284 149.566554 
L 520.878086 149.507964 
L 516.757888 149.448614 
L 512.63769 149.39681 
L 508.517492 149.34235 
L 504.397294 149.282184 
L 500.277096 149.214398 
L 496.156898 149.126232 
L 492.0367 149.01699 
L 487.916502 148.901876 
L 483.796304 148.787651 
L 479.676106 148.666122 
L 475.555908 148.517637 
L 471.43571 148.307608 
L 467.315512 148.016114 
L 463.195314 147.690379 
L 459.075116 147.404102 
L 454.954918 147.153987 
L 450.83472 146.86872 
L 446.714522 146.499914 
L 442.594324 146.060087 
L 438.474126 145.594122 
L 434.353928 145.122813 
L 430.23373 144.627117 
L 426.113532 144.095621 
L 421.993334 143.564892 
L 417.873136 143.066472 
L 413.752937 142.540442 
L 409.632739 141.891079 
L 405.512541 141.113065 
L 401.392343 140.304013 
L 397.272145 139.563147 
L 393.151947 138.915884 
L 389.031749 138.33132 
L 384.911551 137.731408 
L 380.791353 137.059837 
L 376.671155 136.374872 
L 372.550957 135.759776 
L 368.430759 135.229353 
L 364.310561 134.808837 
L 360.190363 134.559877 
L 356.070165 134.466167 
L 351.949967 134.405636 
L 347.829769 134.289224 
L 343.709571 134.168422 
L 339.589373 134.156826 
L 335.469175 134.330728 
L 331.348977 134.740465 
L 327.228779 135.365224 
L 323.108581 136.067399 
L 318.988383 136.740882 
L 314.868185 137.403321 
L 310.747987 138.102392 
L 306.627789 138.859899 
L 302.507591 139.695427 
L 298.387393 140.621309 
L 294.267195 141.617278 
L 290.146997 142.632598 
L 286.026799 143.598257 
L 281.906601 144.464445 
L 277.786403 145.227175 
L 273.666205 145.913398 
L 269.546006 146.544822 
L 265.425808 147.109738 
L 261.30561 147.589728 
L 257.185412 148.000569 
L 253.065214 148.376756 
L 248.945016 148.7297 
L 244.824818 149.035198 
L 240.70462 149.26323 
L 236.584422 149.41422 
L 232.464224 149.514314 
L 228.344026 149.58752 
L 224.223828 149.644058 
L 220.10363 149.68541 
L 215.983432 149.713007 
L 211.863234 149.731479 
L 207.743036 149.746357 
z
" clip-path="url(#p06ffdea685)" style="fill: #2563eb; fill-opacity: 0.18"/>
   </g>
   <g id="FillBetweenPolyCollection_7">
    <path d="M 227.343853 111.673003 
L 227.343853 111.70313 
L 231.652604 111.710802 
L 235.961355 111.720109 
L 240.270105 111.735233 
L 244.578856 111.758734 
L 248.887607 111.791169 
L 253.196357 111.834521 
L 257.505108 111.892634 
L 261.813859 111.970004 
L 266.122609 112.072115 
L 270.43136 112.204471 
L 274.740111 112.368771 
L 279.048861 112.563026 
L 283.357612 112.793177 
L 287.666362 113.083983 
L 291.975113 113.460103 
L 296.283864 113.912261 
L 300.592614 114.410327 
L 304.901365 114.945877 
L 309.210116 115.532617 
L 313.518866 116.174761 
L 317.827617 116.856347 
L 322.136368 117.569656 
L 326.445118 118.336456 
L 330.753869 119.17113 
L 335.06262 120.054506 
L 339.37137 120.969677 
L 343.680121 121.913123 
L 347.988872 122.849727 
L 352.297622 123.729788 
L 356.606373 124.528929 
L 360.915124 125.20777 
L 365.223874 125.724386 
L 369.532625 126.102613 
L 373.841376 126.431332 
L 378.150126 126.761943 
L 382.458877 127.039211 
L 386.767627 127.207694 
L 391.076378 127.286672 
L 395.385129 127.30195 
L 399.693879 127.244236 
L 404.00263 127.09326 
L 408.311381 126.84533 
L 412.620131 126.499942 
L 416.928882 126.059652 
L 421.237633 125.555294 
L 425.546383 125.002832 
L 429.855134 124.394445 
L 434.163885 123.775454 
L 438.472635 123.188974 
L 442.781386 122.575987 
L 447.090137 121.886177 
L 451.398887 121.172736 
L 455.707638 120.492503 
L 460.016389 119.840655 
L 464.325139 119.201896 
L 468.63389 118.59653 
L 472.94264 118.061605 
L 477.251391 117.598064 
L 481.560142 117.158888 
L 485.868892 116.691835 
L 490.177643 116.183724 
L 494.486394 115.675293 
L 498.795144 115.221502 
L 503.103895 114.837702 
L 507.412646 114.500583 
L 511.721396 114.183375 
L 516.030147 113.882602 
L 520.338898 113.609739 
L 524.647648 113.367954 
L 528.956399 113.152406 
L 533.26515 112.955577 
L 537.5739 112.773484 
L 541.882651 112.614344 
L 546.191402 112.487805 
L 550.500152 112.390114 
L 554.808903 112.307281 
L 559.117653 112.228635 
L 563.426404 112.152814 
L 567.735155 112.084183 
L 572.043905 112.025281 
L 576.352656 111.971432 
L 580.661407 111.920307 
L 584.970157 111.878294 
L 589.278908 111.849356 
L 593.587659 111.82837 
L 597.896409 111.807113 
L 602.20516 111.782899 
L 606.513911 111.760945 
L 610.822661 111.745708 
L 615.131412 111.734579 
L 619.440163 111.7238 
L 623.748913 111.713441 
L 628.057664 111.705591 
L 632.366415 111.701506 
L 636.675165 111.700361 
L 640.983916 111.700556 
L 645.292666 111.701329 
L 649.601417 111.701584 
L 653.910168 111.699481 
L 653.910168 111.676651 
L 653.910168 111.676651 
L 649.601417 111.674549 
L 645.292666 111.674803 
L 640.983916 111.675576 
L 636.675165 111.675771 
L 632.366415 111.674626 
L 628.057664 111.670541 
L 623.748913 111.662691 
L 619.440163 111.652332 
L 615.131412 111.641554 
L 610.822661 111.630424 
L 606.513911 111.615187 
L 602.20516 111.593233 
L 597.896409 111.569019 
L 593.587659 111.547762 
L 589.278908 111.526776 
L 584.970157 111.497838 
L 580.661407 111.455825 
L 576.352656 111.4047 
L 572.043905 111.350851 
L 567.735155 111.29195 
L 563.426404 111.223318 
L 559.117653 111.147497 
L 554.808903 111.068851 
L 550.500152 110.986019 
L 546.191402 110.888327 
L 541.882651 110.761788 
L 537.5739 110.602648 
L 533.26515 110.420556 
L 528.956399 110.223726 
L 524.647648 110.008179 
L 520.338898 109.766393 
L 516.030147 109.49353 
L 511.721396 109.192757 
L 507.412646 108.875549 
L 503.103895 108.538431 
L 498.795144 108.154631 
L 494.486394 107.70084 
L 490.177643 107.192408 
L 485.868892 106.684297 
L 481.560142 106.217244 
L 477.251391 105.778068 
L 472.94264 105.314527 
L 468.63389 104.779602 
L 464.325139 104.174236 
L 460.016389 103.535477 
L 455.707638 102.883629 
L 451.398887 102.203396 
L 447.090137 101.489955 
L 442.781386 100.800146 
L 438.472635 100.187158 
L 434.163885 99.600678 
L 429.855134 98.981687 
L 425.546383 98.3733 
L 421.237633 97.820838 
L 416.928882 97.31648 
L 412.620131 96.87619 
L 408.311381 96.530802 
L 404.00263 96.282872 
L 399.693879 96.131897 
L 395.385129 96.074182 
L 391.076378 96.08946 
L 386.767627 96.168438 
L 382.458877 96.336921 
L 378.150126 96.614189 
L 373.841376 96.9448 
L 369.532625 97.273519 
L 365.223874 97.651746 
L 360.915124 98.168362 
L 356.606373 98.847204 
L 352.297622 99.646344 
L 347.988872 100.526405 
L 343.680121 101.463009 
L 339.37137 102.406455 
L 335.06262 103.321626 
L 330.753869 104.205002 
L 326.445118 105.039676 
L 322.136368 105.806476 
L 317.827617 106.519785 
L 313.518866 107.201371 
L 309.210116 107.843515 
L 304.901365 108.430255 
L 300.592614 108.965805 
L 296.283864 109.463872 
L 291.975113 109.916029 
L 287.666362 110.29215 
L 283.357612 110.582955 
L 279.048861 110.813106 
L 274.740111 111.007361 
L 270.43136 111.171662 
L 266.122609 111.304017 
L 261.813859 111.406129 
L 257.505108 111.483498 
L 253.196357 111.541611 
L 248.887607 111.584963 
L 244.578856 111.617399 
L 240.270105 111.640899 
L 235.961355 111.656023 
L 231.652604 111.66533 
L 227.343853 111.673003 
z
" clip-path="url(#p06ffdea685)" style="fill: #111827; fill-opacity: 0.18"/>
   </g>
   <g id="matplotlib.axis_1">
    <g id="xtick_1">
     <g id="line2d_1">
      <path d="M 79.2 368.784 
L 79.2 83.088 
" clip-path="url(#p06ffdea685)" style="fill: none; stroke: #e2e8f0; stroke-width: 0.9; stroke-linecap: square"/>
     </g>
     <g id="line2d_2"/>
     <g id="text_1">
      <text style="font-size: 10px; font-family: 'DejaVu Sans'; text-anchor: middle; fill: #64748b" x="79.2" y="379.882437" transform="rotate(-0 79.2 379.882437)">0%</text>
     </g>
    </g>
    <g id="xtick_2">
     <g id="line2d_3">
      <path d="M 181.309091 368.784 
L 181.309091 83.088 
" clip-path="url(#p06ffdea685)" style="fill: none; stroke: #e2e8f0; stroke-width: 0.9; stroke-linecap: square"/>
     </g>
     <g id="line2d_4"/>
     <g id="text_2">
      <text style="font-size: 10px; font-family: 'DejaVu Sans'; text-anchor: middle; fill: #64748b" x="181.309091" y="379.882437" transform="rotate(-0 181.309091 379.882437)">10%</text>
     </g>
    </g>
    <g id="xtick_3">
     <g id="line2d_5">
      <path d="M 283.418182 368.784 
L 283.418182 83.088 
" clip-path="url(#p06ffdea685)" style="fill: none; stroke: #e2e8f0; stroke-width: 0.9; stroke-linecap: square"/>
     </g>
     <g id="line2d_6"/>
     <g id="text_3">
      <text style="font-size: 10px; font-family: 'DejaVu Sans'; text-anchor: middle; fill: #64748b" x="283.418182" y="379.882437" transform="rotate(-0 283.418182 379.882437)">20%</text>
     </g>
    </g>
    <g id="xtick_4">
     <g id="line2d_7">
      <path d="M 385.527273 368.784 
L 385.527273 83.088 
" clip-path="url(#p06ffdea685)" style="fill: none; stroke: #e2e8f0; stroke-width: 0.9; stroke-linecap: square"/>
     </g>
     <g id="line2d_8"/>
     <g id="text_4">
      <text style="font-size: 10px; font-family: 'DejaVu Sans'; text-anchor: middle; fill: #64748b" x="385.527273" y="379.882437" transform="rotate(-0 385.527273 379.882437)">30%</text>
     </g>
    </g>
    <g id="xtick_5">
     <g id="line2d_9">
      <path d="M 487.636364 368.784 
L 487.636364 83.088 
" clip-path="url(#p06ffdea685)" style="fill: none; stroke: #e2e8f0; stroke-width: 0.9; stroke-linecap: square"/>
     </g>
     <g id="line2d_10"/>
     <g id="text_5">
      <text style="font-size: 10px; font-family: 'DejaVu Sans'; text-anchor: middle; fill: #64748b" x="487.636364" y="379.882437" transform="rotate(-0 487.636364 379.882437)">40%</text>
     </g>
    </g>
    <g id="xtick_6">
     <g id="line2d_11">
      <path d="M 589.745455 368.784 
L 589.745455 83.088 
" clip-path="url(#p06ffdea685)" style="fill: none; stroke: #e2e8f0; stroke-width: 0.9; stroke-linecap: square"/>
     </g>
     <g id="line2d_12"/>
     <g id="text_6">
      <text style="font-size: 10px; font-family: 'DejaVu Sans'; text-anchor: middle; fill: #64748b" x="589.745455" y="379.882437" transform="rotate(-0 589.745455 379.882437)">50%</text>
     </g>
    </g>
    <g id="text_7">
     <text style="font-size: 10px; font-family: 'DejaVu Sans'; text-anchor: middle; fill: #64748b" x="360" y="399.560562" transform="rotate(-0 360 399.560562)">Seat-share proxy</text>
    </g>
   </g>
   <g id="matplotlib.axis_2">
    <g id="ytick_1">
     <g id="line2d_13"/>
     <g id="text_8">
      <text style="font-size: 10px; font-family: 'DejaVu Sans'; text-anchor: end; fill: #111827" x="75.7" y="343.983153" transform="rotate(-0 75.7 343.983153)">FDP</text>
     </g>
    </g>
    <g id="ytick_2">
     <g id="line2d_14"/>
     <g id="text_9">
      <text style="font-size: 10px; font-family: 'DejaVu Sans'; text-anchor: end; fill: #111827" x="75.7" y="305.900508" transform="rotate(-0 75.7 305.900508)">BSW</text>
     </g>
    </g>
    <g id="ytick_3">
     <g id="line2d_15"/>
     <g id="text_10">
      <text style="font-size: 10px; font-family: 'DejaVu Sans'; text-anchor: end; fill: #111827" x="75.7" y="267.817863" transform="rotate(-0 75.7 267.817863)">Linke</text>
     </g>
    </g>
    <g id="ytick_4">
     <g id="line2d_16"/>
     <g id="text_11">
      <text style="font-size: 10px; font-family: 'DejaVu Sans'; text-anchor: end; fill: #111827" x="75.7" y="229.735219" transform="rotate(-0 75.7 229.735219)">Gruene</text>
     </g>
    </g>
    <g id="ytick_5">
     <g id="line2d_17"/>
     <g id="text_12">
      <text style="font-size: 10px; font-family: 'DejaVu Sans'; text-anchor: end; fill: #111827" x="75.7" y="191.652574" transform="rotate(-0 75.7 191.652574)">SPD</text>
     </g>
    </g>
    <g id="ytick_6">
     <g id="line2d_18"/>
     <g id="text_13">
      <text style="font-size: 10px; font-family: 'DejaVu Sans'; text-anchor: end; fill: #111827" x="75.7" y="153.569929" transform="rotate(-0 75.7 153.569929)">AfD</text>
     </g>
    </g>
    <g id="ytick_7">
     <g id="line2d_19"/>
     <g id="text_14">
      <text style="font-size: 10px; font-family: 'DejaVu Sans'; text-anchor: end; fill: #111827" x="75.7" y="115.487285" transform="rotate(-0 75.7 115.487285)">CDU/CSU</text>
     </g>
    </g>
   </g>
   <g id="line2d_20">
    <path d="M 79.2 340.183934 
L 152.116065 340.183934 
" clip-path="url(#p06ffdea685)" style="fill: none; stroke: #eab308; stroke-opacity: 0.72; stroke-width: 2.4; stroke-linecap: round"/>
   </g>
   <g id="line2d_21">
    <path d="M 79.2 302.101289 
L 167.694313 302.101289 
" clip-path="url(#p06ffdea685)" style="fill: none; stroke: #7c3aed; stroke-opacity: 0.72; stroke-width: 2.4; stroke-linecap: round"/>
   </g>
   <g id="line2d_22">
    <path d="M 79.2 264.018645 
L 173.41628 264.018645 
" clip-path="url(#p06ffdea685)" style="fill: none; stroke: #be185d; stroke-opacity: 0.72; stroke-width: 2.4; stroke-linecap: round"/>
   </g>
   <g id="line2d_23">
    <path d="M 172.513484 225.936 
L 285.570148 225.936 
" clip-path="url(#p06ffdea685)" style="fill: none; stroke: #16a34a; stroke-opacity: 0.72; stroke-width: 2.4; stroke-linecap: round"/>
   </g>
   <g id="line2d_24">
    <path d="M 200.339694 187.853355 
L 340.112227 187.853355 
" clip-path="url(#p06ffdea685)" style="fill: none; stroke: #e11d48; stroke-opacity: 0.72; stroke-width: 2.4; stroke-linecap: round"/>
   </g>
   <g id="line2d_25">
    <path d="M 269.030784 149.770711 
L 465.350799 149.770711 
" clip-path="url(#p06ffdea685)" style="fill: none; stroke: #2563eb; stroke-opacity: 0.72; stroke-width: 2.4; stroke-linecap: round"/>
   </g>
   <g id="line2d_26">
    <path d="M 303.584684 111.688066 
L 519.886729 111.688066 
" clip-path="url(#p06ffdea685)" style="fill: none; stroke: #111827; stroke-opacity: 0.72; stroke-width: 2.4; stroke-linecap: round"/>
   </g>
   <g id="line2d_27">
    <path d="M 589.745455 368.784 
L 589.745455 83.088 
" clip-path="url(#p06ffdea685)" style="fill: none; stroke-dasharray: 4.6,4.6; stroke-dashoffset: 0; stroke: #94a3b8; stroke-width: 1.15"/>
   </g>
   <g id="patch_3">
    <path d="M 79.2 368.784 
L 640.8 368.784 
" style="fill: none; stroke: #e2e8f0; stroke-width: 0.8; stroke-linejoin: miter; stroke-linecap: square"/>
   </g>
   <g id="PathCollection_1">
    <defs>
     <path id="m6398faaa15" d="M 0 4.301163 
C 1.140682 4.301163 2.234798 3.847965 3.041381 3.041381 
C 3.847965 2.234798 4.301163 1.140682 4.301163 0 
C 4.301163 -1.140682 3.847965 -2.234798 3.041381 -3.041381 
C 2.234798 -3.847965 1.140682 -4.301163 0 -4.301163 
C -1.140682 -4.301163 -2.234798 -3.847965 -3.041381 -3.041381 
C -3.847965 -2.234798 -4.301163 -1.140682 -4.301163 0 
C -4.301163 1.140682 -3.847965 2.234798 -3.041381 3.041381 
C -2.234798 3.847965 -1.140682 4.301163 0 4.301163 
z
" style="stroke: #ffffff; stroke-width: 1.6"/>
    </defs>
    <g clip-path="url(#p06ffdea685)">
     <use xlink:href="#m6398faaa15" x="79.2" y="340.183934" style="fill: #eab308; stroke: #ffffff; stroke-width: 1.6"/>
    </g>
   </g>
   <g id="text_15">
    <text style="font-size: 9px; font-family: 'DejaVu Sans'; text-anchor: start; fill: #111827" x="88.389818" y="331.457339" transform="rotate(-0 88.389818 331.457339)">0.0%</text>
   </g>
   <g id="PathCollection_2">
    <defs>
     <path id="mebe2958bef" d="M 0 4.301163 
C 1.140682 4.301163 2.234798 3.847965 3.041381 3.041381 
C 3.847965 2.234798 4.301163 1.140682 4.301163 0 
C 4.301163 -1.140682 3.847965 -2.234798 3.041381 -3.041381 
C 2.234798 -3.847965 1.140682 -4.301163 0 -4.301163 
C -1.140682 -4.301163 -2.234798 -3.847965 -3.041381 -3.041381 
C -3.847965 -2.234798 -4.301163 -1.140682 -4.301163 0 
C -4.301163 1.140682 -3.847965 2.234798 -3.041381 3.041381 
C -2.234798 3.847965 -1.140682 4.301163 0 4.301163 
z
" style="stroke: #ffffff; stroke-width: 1.6"/>
    </defs>
    <g clip-path="url(#p06ffdea685)">
     <use xlink:href="#mebe2958bef" x="136.563205" y="302.101289" style="fill: #7c3aed; stroke: #ffffff; stroke-width: 1.6"/>
    </g>
   </g>
   <g id="text_16">
    <text style="font-size: 9px; font-family: 'DejaVu Sans'; text-anchor: start; fill: #111827" x="145.753023" y="293.374694" transform="rotate(-0 145.753023 293.374694)">5.6%</text>
   </g>
   <g id="PathCollection_3">
    <defs>
     <path id="m2559104d83" d="M 0 4.301163 
C 1.140682 4.301163 2.234798 3.847965 3.041381 3.041381 
C 3.847965 2.234798 4.301163 1.140682 4.301163 0 
C 4.301163 -1.140682 3.847965 -2.234798 3.041381 -3.041381 
C 2.234798 -3.847965 1.140682 -4.301163 0 -4.301163 
C -1.140682 -4.301163 -2.234798 -3.847965 -3.041381 -3.041381 
C -3.847965 -2.234798 -4.301163 -1.140682 -4.301163 0 
C -4.301163 1.140682 -3.847965 2.234798 -3.041381 3.041381 
C -2.234798 3.847965 -1.140682 4.301163 0 4.301163 
z
" style="stroke: #ffffff; stroke-width: 1.6"/>
    </defs>
    <g clip-path="url(#p06ffdea685)">
     <use xlink:href="#m2559104d83" x="141.641241" y="264.018645" style="fill: #be185d; stroke: #ffffff; stroke-width: 1.6"/>
    </g>
   </g>
   <g id="text_17">
    <text style="font-size: 9px; font-family: 'DejaVu Sans'; text-anchor: start; fill: #111827" x="150.831059" y="255.29205" transform="rotate(-0 150.831059 255.29205)">6.1%</text>
   </g>
   <g id="PathCollection_4">
    <defs>
     <path id="m101240e4f0" d="M 0 4.301163 
C 1.140682 4.301163 2.234798 3.847965 3.041381 3.041381 
C 3.847965 2.234798 4.301163 1.140682 4.301163 0 
C 4.301163 -1.140682 3.847965 -2.234798 3.041381 -3.041381 
C 2.234798 -3.847965 1.140682 -4.301163 0 -4.301163 
C -1.140682 -4.301163 -2.234798 -3.847965 -3.041381 -3.041381 
C -3.847965 -2.234798 -4.301163 -1.140682 -4.301163 0 
C -4.301163 1.140682 -3.847965 2.234798 -3.041381 3.041381 
C -2.234798 3.847965 -1.140682 4.301163 0 4.301163 
z
" style="stroke: #ffffff; stroke-width: 1.6"/>
    </defs>
    <g clip-path="url(#p06ffdea685)">
     <use xlink:href="#m101240e4f0" x="218.951605" y="225.936" style="fill: #16a34a; stroke: #ffffff; stroke-width: 1.6"/>
    </g>
   </g>
   <g id="text_18">
    <text style="font-size: 9px; font-family: 'DejaVu Sans'; text-anchor: start; fill: #111827" x="228.141423" y="217.209405" transform="rotate(-0 228.141423 217.209405)">13.7%</text>
   </g>
   <g id="PathCollection_5">
    <defs>
     <path id="m6e424785d0" d="M 0 4.301163 
C 1.140682 4.301163 2.234798 3.847965 3.041381 3.041381 
C 3.847965 2.234798 4.301163 1.140682 4.301163 0 
C 4.301163 -1.140682 3.847965 -2.234798 3.041381 -3.041381 
C 2.234798 -3.847965 1.140682 -4.301163 0 -4.301163 
C -1.140682 -4.301163 -2.234798 -3.847965 -3.041381 -3.041381 
C -3.847965 -2.234798 -4.301163 -1.140682 -4.301163 0 
C -4.301163 1.140682 -3.847965 2.234798 -3.041381 3.041381 
C -2.234798 3.847965 -1.140682 4.301163 0 4.301163 
z
" style="stroke: #ffffff; stroke-width: 1.6"/>
    </defs>
    <g clip-path="url(#p06ffdea685)">
     <use xlink:href="#m6e424785d0" x="258.784651" y="187.853355" style="fill: #e11d48; stroke: #ffffff; stroke-width: 1.6"/>
    </g>
   </g>
   <g id="text_19">
    <text style="font-size: 9px; font-family: 'DejaVu Sans'; text-anchor: start; fill: #111827" x="267.974469" y="179.126761" transform="rotate(-0 267.974469 179.126761)">17.6%</text>
   </g>
   <g id="PathCollection_6">
    <defs>
     <path id="m9ea8c54390" d="M 0 4.301163 
C 1.140682 4.301163 2.234798 3.847965 3.041381 3.041381 
C 3.847965 2.234798 4.301163 1.140682 4.301163 0 
C 4.301163 -1.140682 3.847965 -2.234798 3.041381 -3.041381 
C 2.234798 -3.847965 1.140682 -4.301163 0 -4.301163 
C -1.140682 -4.301163 -2.234798 -3.847965 -3.041381 -3.041381 
C -3.847965 -2.234798 -4.301163 -1.140682 -4.301163 0 
C -4.301163 1.140682 -3.847965 2.234798 -3.041381 3.041381 
C -2.234798 3.847965 -1.140682 4.301163 0 4.301163 
z
" style="stroke: #ffffff; stroke-width: 1.6"/>
    </defs>
    <g clip-path="url(#p06ffdea685)">
     <use xlink:href="#m9ea8c54390" x="354.34766" y="149.770711" style="fill: #2563eb; stroke: #ffffff; stroke-width: 1.6"/>
    </g>
   </g>
   <g id="text_20">
    <text style="font-size: 9px; font-family: 'DejaVu Sans'; text-anchor: start; fill: #111827" x="363.537478" y="141.044116" transform="rotate(-0 363.537478 141.044116)">26.9%</text>
   </g>
   <g id="PathCollection_7">
    <defs>
     <path id="m3e9293a8d8" d="M 0 4.301163 
C 1.140682 4.301163 2.234798 3.847965 3.041381 3.041381 
C 3.847965 2.234798 4.301163 1.140682 4.301163 0 
C 4.301163 -1.140682 3.847965 -2.234798 3.041381 -3.041381 
C 2.234798 -3.847965 1.140682 -4.301163 0 -4.301163 
C -1.140682 -4.301163 -2.234798 -3.847965 -3.041381 -3.041381 
C -3.847965 -2.234798 -4.301163 -1.140682 -4.301163 0 
C -4.301163 1.140682 -3.847965 2.234798 -3.041381 3.041381 
C -2.234798 3.847965 -1.140682 4.301163 0 4.301163 
z
" style="stroke: #ffffff; stroke-width: 1.6"/>
    </defs>
    <g clip-path="url(#p06ffdea685)">
     <use xlink:href="#m3e9293a8d8" x="399.344705" y="111.688066" style="fill: #111827; stroke: #ffffff; stroke-width: 1.6"/>
    </g>
   </g>
   <g id="text_21">
    <text style="font-size: 9px; font-family: 'DejaVu Sans'; text-anchor: start; fill: #111827" x="408.534523" y="102.961471" transform="rotate(-0 408.534523 102.961471)">31.4%</text>
   </g>
   <g id="text_22">
    <text style="font-size: 9px; font-family: 'DejaVu Sans'; text-anchor: start; fill: #64748b" x="596.893091" y="89.417785" transform="rotate(-0 596.893091 89.417785)">single-party majority</text>
   </g>
  </g>
  <g id="text_23">
   <text style="font-weight: 700; font-size: 20px; font-family: 'DejaVu Sans'; text-anchor: start; fill: #111827" x="7.2" y="22.396875" transform="rotate(-0 7.2 22.396875)">Seat-share distributions</text>
  </g>
  <g id="text_24">
   <text style="font-size: 10.5px; font-family: 'DejaVu Sans'; text-anchor: start; fill: #64748b" x="7.2" y="35.266359" transform="rotate(-0 7.2 35.266359)">Simulation draws after the simplified threshold and redistribution step</text>
  </g>
 </g>
 <defs>
  <clipPath id="p06ffdea685">
   <rect x="79.2" y="83.088" width="561.6" height="285.696"/>
  </clipPath>
 </defs>
</svg>
