<?xml version="1.0" encoding="utf-8" standalone="no"?>
<!DOCTYPE svg PUBLIC "-//W3C//DTD SVG 1.1//EN"
  "http://www.w3.org/Graphics/SVG/1.1/DTD/svg11.dtd">
<svg xmlns:xlink="http://www.w3.org/1999/xlink" width="648pt" height="408.84025pt" viewBox="0 0 648 408.84025" xmlns="http://www.w3.org/2000/svg" version="1.1">
 <metadata>
  <rdf:RDF xmlns:dc="http://purl.org/dc/elements/1.1/" xmlns:cc="http://creativecommons.org/ns#" xmlns:rdf="http://www.w3.org/1999/02/22-rdf-syntax-ns#">
   <cc:Work>
    <dc:type rdf:resource="http://purl.org/dc/dcmitype/StillImage"/>
    <dc:date>2026-05-19T20:09:26.246057</dc:date>
    <dc:format>image/svg+xml</dc:format>
    <dc:creator>
     <cc:Agent>
      <dc:title>Matplotlib v3.10.9, https://matplotlib.org/</dc:title>
     </cc:Agent>
    </dc:creator>
   </cc:Work>
  </rdf:RDF>
 </metadata>
 <defs>
  <style type="text/css">*{stroke-linejoin: round; stroke-linecap: butt}</style>
 </defs>
 <g id="figure_1">
  <g id="patch_1">
   <path d="M -0 408.84025 
L 648 408.84025 
L 648 0 
L -0 0 
z
" style="fill: #f8fafc"/>
  </g>
  <g id="axes_1">
   <g id="patch_2">
    <path d="M 79.2 368.784 
L 640.8 368.784 
L 640.8 83.088 
L 79.2 83.088 
z
" style="fill: #ffffff"/>
   </g>
   <g id="matplotlib.axis_1">
    <g id="xtick_1">
     <g id="line2d_1">
      <path d="M 79.2 368.784 
L 79.2 83.088 
" clip-path="url(#p52e5c60d9f)" style="fill: none; stroke: #e2e8f0; stroke-width: 0.9; stroke-linecap: square"/>
     </g>
     <g id="line2d_2"/>
     <g id="text_1">
      <text style="font-size: 10px; font-family: 'DejaVu Sans'; text-anchor: middle; fill: #64748b" x="79.2" y="379.882437" transform="rotate(-0 79.2 379.882437)">0%</text>
     </g>
    </g>
    <g id="xtick_2">
     <g id="line2d_3">
      <path d="M 145.460656 368.784 
L 145.460656 83.088 
" clip-path="url(#p52e5c60d9f)" style="fill: none; stroke: #e2e8f0; stroke-width: 0.9; stroke-linecap: square"/>
     </g>
     <g id="line2d_4"/>
     <g id="text_2">
      <text style="font-size: 10px; font-family: 'DejaVu Sans'; text-anchor: middle; fill: #64748b" x="145.460656" y="379.882437" transform="rotate(-0 145.460656 379.882437)">5%</text>
     </g>
    </g>
    <g id="xtick_3">
     <g id="line2d_5">
      <path d="M 211.721312 368.784 
L 211.721312 83.088 
" clip-path="url(#p52e5c60d9f)" style="fill: none; stroke: #e2e8f0; stroke-width: 0.9; stroke-linecap: square"/>
     </g>
     <g id="line2d_6"/>
     <g id="text_3">
      <text style="font-size: 10px; font-family: 'DejaVu Sans'; text-anchor: middle; fill: #64748b" x="211.721312" y="379.882437" transform="rotate(-0 211.721312 379.882437)">10%</text>
     </g>
    </g>
    <g id="xtick_4">
     <g id="line2d_7">
      <path d="M 277.981968 368.784 
L 277.981968 83.088 
" clip-path="url(#p52e5c60d9f)" style="fill: none; stroke: #e2e8f0; stroke-width: 0.9; stroke-linecap: square"/>
     </g>
     <g id="line2d_8"/>
     <g id="text_4">
      <text style="font-size: 10px; font-family: 'DejaVu Sans'; text-anchor: middle; fill: #64748b" x="277.981968" y="379.882437" transform="rotate(-0 277.981968 379.882437)">15%</text>
     </g>
    </g>
    <g id="xtick_5">
     <g id="line2d_9">
      <path d="M 344.242625 368.784 
L 344.242625 83.088 
" clip-path="url(#p52e5c60d9f)" style="fill: none; stroke: #e2e8f0; stroke-width: 0.9; stroke-linecap: square"/>
     </g>
     <g id="line2d_10"/>
     <g id="text_5">
      <text style="font-size: 10px; font-family: 'DejaVu Sans'; text-anchor: middle; fill: #64748b" x="344.242625" y="379.882437" transform="rotate(-0 344.242625 379.882437)">20%</text>
     </g>
    </g>
    <g id="xtick_6">
     <g id="line2d_11">
      <path d="M 410.503281 368.784 
L 410.503281 83.088 
" clip-path="url(#p52e5c60d9f)" style="fill: none; stroke: #e2e8f0; stroke-width: 0.9; stroke-linecap: square"/>
     </g>
     <g id="line2d_12"/>
     <g id="text_6">
      <text style="font-size: 10px; font-family: 'DejaVu Sans'; text-anchor: middle; fill: #64748b" x="410.503281" y="379.882437" transform="rotate(-0 410.503281 379.882437)">25%</text>
     </g>
    </g>
    <g id="xtick_7">
     <g id="line2d_13">
      <path d="M 476.763937 368.784 
L 476.763937 83.088 
" clip-path="url(#p52e5c60d9f)" style="fill: none; stroke: #e2e8f0; stroke-width: 0.9; stroke-linecap: square"/>
     </g>
     <g id="line2d_14"/>
     <g id="text_7">
      <text style="font-size: 10px; font-family: 'DejaVu Sans'; text-anchor: middle; fill: #64748b" x="476.763937" y="379.882437" transform="rotate(-0 476.763937 379.882437)">30%</text>
     </g>
    </g>
    <g id="xtick_8">
     <g id="line2d_15">
      <path d="M 543.024593 368.784 
L 543.024593 83.088 
" clip-path="url(#p52e5c60d9f)" style="fill: none; stroke: #e2e8f0; stroke-width: 0.9; stroke-linecap: square"/>
     </g>
     <g id="line2d_16"/>
     <g id="text_8">
      <text style="font-size: 10px; font-family: 'DejaVu Sans'; text-anchor: middle; fill: #64748b" x="543.024593" y="379.882437" transform="rotate(-0 543.024593 379.882437)">35%</text>
     </g>
    </g>
    <g id="xtick_9">
     <g id="line2d_17">
      <path d="M 609.285249 368.784 
L 609.285249 83.088 
" clip-path="url(#p52e5c60d9f)" style="fill: none; stroke: #e2e8f0; stroke-width: 0.9; stroke-linecap: square"/>
     </g>
     <g id="line2d_18"/>
     <g id="text_9">
      <text style="font-size: 10px; font-family: 'DejaVu Sans'; text-anchor: middle; fill: #64748b" x="609.285249" y="379.882437" transform="rotate(-0 609.285249 379.882437)">40%</text>
     </g>
    </g>
    <g id="text_10">
     <text style="font-size: 10px; font-family: 'DejaVu Sans'; text-anchor: middle; fill: #64748b" x="360" y="399.560562" transform="rotate(-0 360 399.560562)">Vote share</text>
    </g>
   </g>
   <g id="matplotlib.axis_2">
    <g id="ytick_1">
     <g id="line2d_19"/>
     <g id="text_11">
      <text style="font-size: 10px; font-family: 'DejaVu Sans'; text-anchor: end; fill: #111827" x="75.7" y="359.597037" transform="rotate(-0 75.7 359.597037)">FDP</text>
     </g>
    </g>
    <g id="ytick_2">
     <g id="line2d_20"/>
     <g id="text_12">
      <text style="font-size: 10px; font-family: 'DejaVu Sans'; text-anchor: end; fill: #111827" x="75.7" y="322.49366" transform="rotate(-0 75.7 322.49366)">BSW</text>
     </g>
    </g>
    <g id="ytick_3">
     <g id="line2d_21"/>
     <g id="text_13">
      <text style="font-size: 10px; font-family: 'DejaVu Sans'; text-anchor: end; fill: #111827" x="75.7" y="285.390284" transform="rotate(-0 75.7 285.390284)">Linke</text>
     </g>
    </g>
    <g id="ytick_4">
     <g id="line2d_22"/>
     <g id="text_14">
      <text style="font-size: 10px; font-family: 'DejaVu Sans'; text-anchor: end; fill: #111827" x="75.7" y="248.286907" transform="rotate(-0 75.7 248.286907)">Sonstige</text>
     </g>
    </g>
    <g id="ytick_5">
     <g id="line2d_23"/>
     <g id="text_15">
      <text style="font-size: 10px; font-family: 'DejaVu Sans'; text-anchor: end; fill: #111827" x="75.7" y="211.18353" transform="rotate(-0 75.7 211.18353)">Gruene</text>
     </g>
    </g>
    <g id="ytick_6">
     <g id="line2d_24"/>
     <g id="text_16">
      <text style="font-size: 10px; font-family: 'DejaVu Sans'; text-anchor: end; fill: #111827" x="75.7" y="174.080154" transform="rotate(-0 75.7 174.080154)">SPD</text>
     </g>
    </g>
    <g id="ytick_7">
     <g id="line2d_25"/>
     <g id="text_17">
      <text style="font-size: 10px; font-family: 'DejaVu Sans'; text-anchor: end; fill: #111827" x="75.7" y="136.976777" transform="rotate(-0 75.7 136.976777)">AfD</text>
     </g>
    </g>
    <g id="ytick_8">
     <g id="line2d_26"/>
     <g id="text_18">
      <text style="font-size: 10px; font-family: 'DejaVu Sans'; text-anchor: end; fill: #111827" x="75.7" y="99.873401" transform="rotate(-0 75.7 99.873401)">CDU/CSU</text>
     </g>
    </g>
   </g>
   <g id="line2d_27">
    <path d="M 115.37491 355.797818 
L 163.325664 355.797818 
" clip-path="url(#p52e5c60d9f)" style="fill: none; stroke: #eab308; stroke-opacity: 0.22; stroke-width: 11; stroke-linecap: round"/>
   </g>
   <g id="line2d_28">
    <path d="M 115.37491 355.797818 
L 163.325664 355.797818 
" clip-path="url(#p52e5c60d9f)" style="fill: none; stroke: #eab308; stroke-opacity: 0.78; stroke-width: 2.4; stroke-linecap: round"/>
   </g>
   <g id="line2d_29">
    <path d="M 122.893985 318.694442 
L 179.814863 318.694442 
" clip-path="url(#p52e5c60d9f)" style="fill: none; stroke: #7c3aed; stroke-opacity: 0.22; stroke-width: 11; stroke-linecap: round"/>
   </g>
   <g id="line2d_30">
    <path d="M 122.893985 318.694442 
L 179.814863 318.694442 
" clip-path="url(#p52e5c60d9f)" style="fill: none; stroke: #7c3aed; stroke-opacity: 0.78; stroke-width: 2.4; stroke-linecap: round"/>
   </g>
   <g id="line2d_31">
    <path d="M 125.90249 281.591065 
L 186.056076 281.591065 
" clip-path="url(#p52e5c60d9f)" style="fill: none; stroke: #be185d; stroke-opacity: 0.22; stroke-width: 11; stroke-linecap: round"/>
   </g>
   <g id="line2d_32">
    <path d="M 125.90249 281.591065 
L 186.056076 281.591065 
" clip-path="url(#p52e5c60d9f)" style="fill: none; stroke: #be185d; stroke-opacity: 0.78; stroke-width: 2.4; stroke-linecap: round"/>
   </g>
   <g id="line2d_33">
    <path d="M 139.915935 244.487688 
L 216.746571 244.487688 
" clip-path="url(#p52e5c60d9f)" style="fill: none; stroke: #6b7280; stroke-opacity: 0.22; stroke-width: 11; stroke-linecap: round"/>
   </g>
   <g id="line2d_34">
    <path d="M 139.915935 244.487688 
L 216.746571 244.487688 
" clip-path="url(#p52e5c60d9f)" style="fill: none; stroke: #6b7280; stroke-opacity: 0.78; stroke-width: 2.4; stroke-linecap: round"/>
   </g>
   <g id="line2d_35">
    <path d="M 184.041501 207.384312 
L 307.062426 207.384312 
" clip-path="url(#p52e5c60d9f)" style="fill: none; stroke: #16a34a; stroke-opacity: 0.22; stroke-width: 11; stroke-linecap: round"/>
   </g>
   <g id="line2d_36">
    <path d="M 184.041501 207.384312 
L 307.062426 207.384312 
" clip-path="url(#p52e5c60d9f)" style="fill: none; stroke: #16a34a; stroke-opacity: 0.78; stroke-width: 2.4; stroke-linecap: round"/>
   </g>
   <g id="line2d_37">
    <path d="M 215.473311 170.280935 
L 366.543404 170.280935 
" clip-path="url(#p52e5c60d9f)" style="fill: none; stroke: #e11d48; stroke-opacity: 0.22; stroke-width: 11; stroke-linecap: round"/>
   </g>
   <g id="line2d_38">
    <path d="M 215.473311 170.280935 
L 366.543404 170.280935 
" clip-path="url(#p52e5c60d9f)" style="fill: none; stroke: #e11d48; stroke-opacity: 0.78; stroke-width: 2.4; stroke-linecap: round"/>
   </g>
   <g id="line2d_39">
    <path d="M 294.120442 133.177558 
L 502.752227 133.177558 
" clip-path="url(#p52e5c60d9f)" style="fill: none; stroke: #2563eb; stroke-opacity: 0.22; stroke-width: 11; stroke-linecap: round"/>
   </g>
   <g id="line2d_40">
    <path d="M 294.120442 133.177558 
L 502.752227 133.177558 
" clip-path="url(#p52e5c60d9f)" style="fill: none; stroke: #2563eb; stroke-opacity: 0.78; stroke-width: 2.4; stroke-linecap: round"/>
   </g>
   <g id="line2d_41">
    <path d="M 333.787038 96.074182 
L 561.287213 96.074182 
" clip-path="url(#p52e5c60d9f)" style="fill: none; stroke: #111827; stroke-opacity: 0.22; stroke-width: 11; stroke-linecap: round"/>
   </g>
   <g id="line2d_42">
    <path d="M 333.787038 96.074182 
L 561.287213 96.074182 
" clip-path="url(#p52e5c60d9f)" style="fill: none; stroke: #111827; stroke-opacity: 0.78; stroke-width: 2.4; stroke-linecap: round"/>
   </g>
   <g id="line2d_43">
    <path d="M 145.460656 368.784 
L 145.460656 83.088 
" clip-path="url(#p52e5c60d9f)" style="fill: none; stroke-dasharray: 4.8,4.8; stroke-dashoffset: 0; stroke: #94a3b8; stroke-width: 1.2"/>
   </g>
   <g id="patch_3">
    <path d="M 79.2 368.784 
L 640.8 368.784 
" style="fill: none; stroke: #e2e8f0; stroke-width: 0.8; stroke-linejoin: miter; stroke-linecap: square"/>
   </g>
   <g id="PathCollection_1">
    <defs>
     <path id="m2378e75ad0" d="M 0 4.690416 
C 1.243913 4.690416 2.437046 4.196204 3.316625 3.316625 
C 4.196204 2.437046 4.690416 1.243913 4.690416 0 
C 4.690416 -1.243913 4.196204 -2.437046 3.316625 -3.316625 
C 2.437046 -4.196204 1.243913 -4.690416 0 -4.690416 
C -1.243913 -4.690416 -2.437046 -4.196204 -3.316625 -3.316625 
C -4.196204 -2.437046 -4.690416 -1.243913 -4.690416 0 
C -4.690416 1.243913 -4.196204 2.437046 -3.316625 3.316625 
C -2.437046 4.196204 -1.243913 4.690416 0 4.690416 
z
" style="stroke: #ffffff; stroke-width: 1.8"/>
    </defs>
    <g clip-path="url(#p52e5c60d9f)">
     <use xlink:href="#m2378e75ad0" x="135.501819" y="355.797818" style="fill: #eab308; stroke: #ffffff; stroke-width: 1.8"/>
    </g>
   </g>
   <g id="text_19">
    <text style="font-size: 10px; font-family: 'DejaVu Sans'; text-anchor: end; fill: #111827" x="635.499148" y="358.557193" transform="rotate(-0 635.499148 358.557193)">4.2%</text>
   </g>
   <g id="PathCollection_2">
    <defs>
     <path id="ma13f1d6898" d="M 0 4.690416 
C 1.243913 4.690416 2.437046 4.196204 3.316625 3.316625 
C 4.196204 2.437046 4.690416 1.243913 4.690416 0 
C 4.690416 -1.243913 4.196204 -2.437046 3.316625 -3.316625 
C 2.437046 -4.196204 1.243913 -4.690416 0 -4.690416 
C -1.243913 -4.690416 -2.437046 -4.196204 -3.316625 -3.316625 
C -4.196204 -2.437046 -4.690416 -1.243913 -4.690416 0 
C -4.690416 1.243913 -4.196204 2.437046 -3.316625 3.316625 
C -2.437046 4.196204 -1.243913 4.690416 0 4.690416 
z
" style="stroke: #ffffff; stroke-width: 1.8"/>
    </defs>
    <g clip-path="url(#p52e5c60d9f)">
     <use xlink:href="#ma13f1d6898" x="147.169202" y="318.694442" style="fill: #7c3aed; stroke: #ffffff; stroke-width: 1.8"/>
    </g>
   </g>
   <g id="text_20">
    <text style="font-size: 10px; font-family: 'DejaVu Sans'; text-anchor: end; fill: #111827" x="635.499148" y="321.453817" transform="rotate(-0 635.499148 321.453817)">5.1%</text>
   </g>
   <g id="PathCollection_3">
    <defs>
     <path id="m2b1136af84" d="M 0 4.690416 
C 1.243913 4.690416 2.437046 4.196204 3.316625 3.316625 
C 4.196204 2.437046 4.690416 1.243913 4.690416 0 
C 4.690416 -1.243913 4.196204 -2.437046 3.316625 -3.316625 
C 2.437046 -4.196204 1.243913 -4.690416 0 -4.690416 
C -1.243913 -4.690416 -2.437046 -4.196204 -3.316625 -3.316625 
C -4.196204 -2.437046 -4.690416 -1.243913 -4.690416 0 
C -4.690416 1.243913 -4.196204 2.437046 -3.316625 3.316625 
C -2.437046 4.196204 -1.243913 4.690416 0 4.690416 
z
" style="stroke: #ffffff; stroke-width: 1.8"/>
    </defs>
    <g clip-path="url(#p52e5c60d9f)">
     <use xlink:href="#m2b1136af84" x="151.387692" y="281.591065" style="fill: #be185d; stroke: #ffffff; stroke-width: 1.8"/>
    </g>
   </g>
   <g id="text_21">
    <text style="font-size: 10px; font-family: 'DejaVu Sans'; text-anchor: end; fill: #111827" x="635.499148" y="284.35044" transform="rotate(-0 635.499148 284.35044)">5.4%</text>
   </g>
   <g id="PathCollection_4">
    <defs>
     <path id="m0afc90907a" d="M 0 4.690416 
C 1.243913 4.690416 2.437046 4.196204 3.316625 3.316625 
C 4.196204 2.437046 4.690416 1.243913 4.690416 0 
C 4.690416 -1.243913 4.196204 -2.437046 3.316625 -3.316625 
C 2.437046 -4.196204 1.243913 -4.690416 0 -4.690416 
C -1.243913 -4.690416 -2.437046 -4.196204 -3.316625 -3.316625 
C -4.196204 -2.437046 -4.690416 -1.243913 -4.690416 0 
C -4.690416 1.243913 -4.196204 2.437046 -3.316625 3.316625 
C -2.437046 4.196204 -1.243913 4.690416 0 4.690416 
z
" style="stroke: #ffffff; stroke-width: 1.8"/>
    </defs>
    <g clip-path="url(#p52e5c60d9f)">
     <use xlink:href="#m0afc90907a" x="172.773594" y="244.487688" style="fill: #6b7280; stroke: #ffffff; stroke-width: 1.8"/>
    </g>
   </g>
   <g id="text_22">
    <text style="font-size: 10px; font-family: 'DejaVu Sans'; text-anchor: end; fill: #111827" x="635.499148" y="247.247063" transform="rotate(-0 635.499148 247.247063)">7.1%</text>
   </g>
   <g id="PathCollection_5">
    <defs>
     <path id="m0f80afe8ed" d="M 0 4.690416 
C 1.243913 4.690416 2.437046 4.196204 3.316625 3.316625 
C 4.196204 2.437046 4.690416 1.243913 4.690416 0 
C 4.690416 -1.243913 4.196204 -2.437046 3.316625 -3.316625 
C 2.437046 -4.196204 1.243913 -4.690416 0 -4.690416 
C -1.243913 -4.690416 -2.437046 -4.196204 -3.316625 -3.316625 
C -4.196204 -2.437046 -4.690416 -1.243913 -4.690416 0 
C -4.690416 1.243913 -4.196204 2.437046 -3.316625 3.316625 
C -2.437046 4.196204 -1.243913 4.690416 0 4.690416 
z
" style="stroke: #ffffff; stroke-width: 1.8"/>
    </defs>
    <g clip-path="url(#p52e5c60d9f)">
     <use xlink:href="#m0f80afe8ed" x="237.504003" y="207.384312" style="fill: #16a34a; stroke: #ffffff; stroke-width: 1.8"/>
    </g>
   </g>
   <g id="text_23">
    <text style="font-size: 10px; font-family: 'DejaVu Sans'; text-anchor: end; fill: #111827" x="635.499148" y="210.143687" transform="rotate(-0 635.499148 210.143687)">11.9%</text>
   </g>
   <g id="PathCollection_6">
    <defs>
     <path id="m52dd1822be" d="M 0 4.690416 
C 1.243913 4.690416 2.437046 4.196204 3.316625 3.316625 
C 4.196204 2.437046 4.690416 1.243913 4.690416 0 
C 4.690416 -1.243913 4.196204 -2.437046 3.316625 -3.316625 
C 2.437046 -4.196204 1.243913 -4.690416 0 -4.690416 
C -1.243913 -4.690416 -2.437046 -4.196204 -3.316625 -3.316625 
C -4.196204 -2.437046 -4.690416 -1.243913 -4.690416 0 
C -4.690416 1.243913 -4.196204 2.437046 -3.316625 3.316625 
C -2.437046 4.196204 -1.243913 4.690416 0 4.690416 
z
" style="stroke: #ffffff; stroke-width: 1.8"/>
    </defs>
    <g clip-path="url(#p52e5c60d9f)">
     <use xlink:href="#m52dd1822be" x="282.867845" y="170.280935" style="fill: #e11d48; stroke: #ffffff; stroke-width: 1.8"/>
    </g>
   </g>
   <g id="text_24">
    <text style="font-size: 10px; font-family: 'DejaVu Sans'; text-anchor: end; fill: #111827" x="635.499148" y="173.04031" transform="rotate(-0 635.499148 173.04031)">15.4%</text>
   </g>
   <g id="PathCollection_7">
    <defs>
     <path id="m424509b446" d="M 0 4.690416 
C 1.243913 4.690416 2.437046 4.196204 3.316625 3.316625 
C 4.196204 2.437046 4.690416 1.243913 4.690416 0 
C 4.690416 -1.243913 4.196204 -2.437046 3.316625 -3.316625 
C 2.437046 -4.196204 1.243913 -4.690416 0 -4.690416 
C -1.243913 -4.690416 -2.437046 -4.196204 -3.316625 -3.316625 
C -4.196204 -2.437046 -4.690416 -1.243913 -4.690416 0 
C -4.690416 1.243913 -4.196204 2.437046 -3.316625 3.316625 
C -2.437046 4.196204 -1.243913 4.690416 0 4.690416 
z
" style="stroke: #ffffff; stroke-width: 1.8"/>
    </defs>
    <g clip-path="url(#p52e5c60d9f)">
     <use xlink:href="#m424509b446" x="390.612623" y="133.177558" style="fill: #2563eb; stroke: #ffffff; stroke-width: 1.8"/>
    </g>
   </g>
   <g id="text_25">
    <text style="font-size: 10px; font-family: 'DejaVu Sans'; text-anchor: end; fill: #111827" x="635.499148" y="135.936933" transform="rotate(-0 635.499148 135.936933)">23.5%</text>
   </g>
   <g id="PathCollection_8">
    <defs>
     <path id="md76f6d03b7" d="M 0 4.690416 
C 1.243913 4.690416 2.437046 4.196204 3.316625 3.316625 
C 4.196204 2.437046 4.690416 1.243913 4.690416 0 
C 4.690416 -1.243913 4.196204 -2.437046 3.316625 -3.316625 
C 2.437046 -4.196204 1.243913 -4.690416 0 -4.690416 
C -1.243913 -4.690416 -2.437046 -4.196204 -3.316625 -3.316625 
C -4.196204 -2.437046 -4.690416 -1.243913 -4.690416 0 
C -4.690416 1.243913 -4.196204 2.437046 -3.316625 3.316625 
C -2.437046 4.196204 -1.243913 4.690416 0 4.690416 
z
" style="stroke: #ffffff; stroke-width: 1.8"/>
    </defs>
    <g clip-path="url(#p52e5c60d9f)">
     <use xlink:href="#md76f6d03b7" x="440.996345" y="96.074182" style="fill: #111827; stroke: #ffffff; stroke-width: 1.8"/>
    </g>
   </g>
   <g id="text_26">
    <text style="font-size: 10px; font-family: 'DejaVu Sans'; text-anchor: end; fill: #111827" x="635.499148" y="98.833557" transform="rotate(-0 635.499148 98.833557)">27.3%</text>
   </g>
   <g id="text_27">
    <text style="font-size: 9px; font-family: 'DejaVu Sans'; text-anchor: start; fill: #64748b" x="148.773689" y="74.440425" transform="rotate(-0 148.773689 74.440425)">5 percent threshold</text>
   </g>
   <g id="legend_1">
    <g id="line2d_44">
     <path d="M 508.296875 339.526187 
L 518.296875 339.526187 
L 528.296875 339.526187 
" style="fill: none; stroke: #64748b; stroke-opacity: 0.25; stroke-width: 6; stroke-linecap: square"/>
    </g>
    <g id="text_28">
     <text style="font-size: 10px; font-family: 'DejaVu Sans'; text-anchor: start; fill: #64748b" x="536.296875" y="343.026187" transform="rotate(-0 536.296875 343.026187)">95 percent interval</text>
    </g>
    <g id="line2d_45">
     <path d="M 508.296875 354.204312 
L 518.296875 354.204312 
L 528.296875 354.204312 
" style="fill: none; stroke: #000000; stroke-opacity: 0; stroke-width: 1.5; stroke-linecap: square"/>
     <defs>
      <path id="m00b12dbe1b" d="M 0 4.5 
C 1.193414 4.5 2.338109 4.025852 3.181981 3.181981 
C 4.025852 2.338109 4.5 1.193414 4.5 0 
C 4.5 -1.193414 4.025852 -2.338109 3.181981 -3.181981 
C 2.338109 -4.025852 1.193414 -4.5 0 -4.5 
C -1.193414 -4.5 -2.338109 -4.025852 -3.181981 -3.181981 
C -4.025852 -2.338109 -4.5 -1.193414 -4.5 0 
C -4.5 1.193414 -4.025852 2.338109 -3.181981 3.181981 
C -2.338109 4.025852 -1.193414 4.5 0 4.5 
z
" style="stroke: #ffffff"/>
     </defs>
     <g>
      <use xlink:href="#m00b12dbe1b" x="518.296875" y="354.204312" style="fill: #111827; stroke: #ffffff"/>
     </g>
    </g>
    <g id="text_29">
     <text style="font-size: 10px; font-family: 'DejaVu Sans'; text-anchor: start; fill: #64748b" x="536.296875" y="357.704312" transform="rotate(-0 536.296875 357.704312)">Weighted average</text>
    </g>
   </g>
  </g>
  <g id="text_30">
   <text style="font-weight: 700; font-size: 20px; font-family: 'DejaVu Sans'; text-anchor: start; fill: #111827" x="7.2" y="22.396875" transform="rotate(-0 7.2 22.396875)">Vote-share forecast</text>
  </g>
  <g id="text_31">
   <text style="font-size: 10.5px; font-family: 'DejaVu Sans'; text-anchor: start; fill: #64748b" x="7.2" y="35.266359" transform="rotate(-0 7.2 35.266359)">Weighted polling average with 95 percent Monte Carlo uncertainty intervals</text>
  </g>
 </g>
 <defs>
  <clipPath id="p52e5c60d9f">
   <rect x="79.2" y="83.088" width="561.6" height="285.696"/>
  </clipPath>
 </defs>
</svg>
